<svg width="119" height="36" viewBox="0 0 119 36" fill="none" xmlns="http://www.w3.org/2000/svg">
<path d="M42.8571 32.8106V18.5747H48.0341C48.9853 18.5747 49.7786 18.7299 50.4142 19.0405C51.0497 19.3509 51.5274 19.7819 51.8473 20.3334C52.1672 20.8802 52.3271 21.5104 52.3271 22.224C52.3271 22.7802 52.226 23.269 52.0241 23.6907C51.8221 24.1078 51.5443 24.4507 51.1907 24.7195C50.8413 24.9836 50.4415 25.1714 49.9912 25.2826V25.4216C50.4836 25.4447 50.9445 25.5977 51.3738 25.8804C51.8073 26.163 52.1587 26.5593 52.4282 27.069C52.6975 27.5742 52.8321 28.1765 52.8321 28.8763C52.8321 29.6316 52.6617 30.3059 52.3208 30.899C51.984 31.4876 51.4853 31.9533 50.8245 32.2963C50.1637 32.6392 49.3493 32.8106 48.3813 32.8106H42.8571ZM45.5908 30.3499H47.8194C48.5812 30.3499 49.1367 30.19 49.4861 29.8703C49.8354 29.5459 50.0101 29.1149 50.0101 28.5774C50.0101 28.1835 49.9238 27.8359 49.7513 27.5347C49.5787 27.2335 49.3325 26.9972 49.0126 26.8257C48.697 26.6543 48.3203 26.5685 47.8825 26.5685H45.5908V30.3499ZM45.5908 24.5318H47.6173C47.992 24.5318 48.3245 24.46 48.6149 24.3164C48.9095 24.168 49.141 23.9595 49.3093 23.6907C49.482 23.4219 49.5682 23.0999 49.5682 22.7245C49.5682 22.2102 49.4019 21.7954 49.0694 21.4803C48.7411 21.1652 48.2739 21.0076 47.6679 21.0076H45.5908V24.5318Z" fill="#F3F3F3"/>
<path d="M57.3256 33.0122C56.707 33.0122 56.1556 32.894 55.6715 32.6577C55.1876 32.4167 54.8046 32.0623 54.5225 31.5942C54.2447 31.1215 54.1059 30.5329 54.1059 29.8286C54.1059 29.2354 54.2048 28.7373 54.4026 28.334C54.6004 27.9309 54.8698 27.6065 55.2107 27.3609C55.5517 27.1154 55.9388 26.9299 56.3724 26.8048C56.8101 26.6797 57.2689 26.5917 57.7486 26.5407C58.3127 26.4758 58.7672 26.4156 59.1123 26.3599C59.4574 26.2997 59.7079 26.2117 59.8636 26.0958C60.0193 25.9799 60.0972 25.8085 60.0972 25.5815V25.5397C60.0972 25.0995 59.9709 24.7589 59.7184 24.5179C59.47 24.2769 59.1166 24.1565 58.6578 24.1565C58.1737 24.1565 57.7886 24.2746 57.5024 24.5109C57.2162 24.7427 57.0268 25.0346 56.9342 25.3868L54.4468 25.1644C54.573 24.5156 54.8214 23.9549 55.1918 23.4822C55.5621 23.0049 56.0399 22.6388 56.6249 22.3839C57.2142 22.1244 57.8959 21.9947 58.6704 21.9947C59.2092 21.9947 59.7247 22.0642 60.2171 22.2032C60.7138 22.3423 61.1536 22.5577 61.5367 22.8496C61.9238 23.1416 62.229 23.5169 62.4521 23.9757C62.6751 24.4299 62.7866 24.9744 62.7866 25.6093V32.8106H60.2361V31.33H60.1604C60.0046 31.6637 59.7962 31.9579 59.5353 32.2128C59.2744 32.463 58.9608 32.66 58.5946 32.8037C58.2284 32.9427 57.8055 33.0122 57.3256 33.0122ZM58.0959 30.9686C58.4915 30.9686 58.8408 30.8828 59.1439 30.7114C59.4469 30.5353 59.6848 30.2989 59.8573 30.0024C60.0299 29.7058 60.1162 29.3698 60.1162 28.9945V27.8614C60.0319 27.9217 59.9162 27.9773 59.7689 28.0283C59.6258 28.0746 59.4637 28.1186 59.2828 28.1603C59.1018 28.1974 58.9208 28.2322 58.7399 28.2646C58.5589 28.2924 58.3947 28.3178 58.2474 28.341C57.9317 28.392 57.6561 28.4732 57.4203 28.5844C57.1846 28.6956 57.0016 28.8462 56.8711 29.0362C56.7406 29.2215 56.6754 29.4533 56.6754 29.7313C56.6754 30.1345 56.8079 30.4426 57.0731 30.6558C57.3425 30.8643 57.6835 30.9686 58.0959 30.9686Z" fill="#F3F3F3"/>
<path d="M69.2547 33.0192C68.2614 33.0192 67.407 32.7875 66.6915 32.324C65.9801 31.856 65.4329 31.2073 65.0499 30.3777C64.6712 29.5483 64.4817 28.5936 64.4817 27.5138C64.4817 26.4203 64.6732 25.4609 65.0562 24.636C65.4435 23.8066 65.9928 23.1602 66.7041 22.6967C67.4154 22.2287 68.2614 21.9947 69.242 21.9947C70.088 21.9947 70.8288 22.1638 71.4643 22.502C72.0998 22.8404 72.6028 23.3154 72.9732 23.927C73.3436 24.5388 73.5477 25.257 73.5856 26.0819H71.0475C70.976 25.549 70.7867 25.1204 70.4794 24.7959C70.1764 24.4669 69.7786 24.3025 69.2862 24.3025C68.8695 24.3025 68.5054 24.4276 68.1939 24.6778C67.8867 24.9234 67.6468 25.2826 67.4743 25.7553C67.3017 26.2279 67.2154 26.8003 67.2154 27.4722C67.2154 28.1534 67.2996 28.7326 67.468 29.2099C67.6405 29.6873 67.8826 30.051 68.1939 30.3013C68.5054 30.5515 68.8695 30.6766 69.2862 30.6766C69.5935 30.6766 69.8691 30.6072 70.1133 30.468C70.3616 30.329 70.5657 30.1275 70.7257 29.8634C70.8898 29.5946 70.9971 29.2725 71.0475 28.8972H73.5856C73.5434 29.7127 73.3414 30.431 72.9795 31.0519C72.6218 31.6683 72.1272 32.1503 71.4959 32.4978C70.8645 32.8454 70.1174 33.0192 69.2547 33.0192Z" fill="#F3F3F3"/>
<path d="M77.7444 29.7383L77.7507 26.1862H78.1422L81.2483 22.1337H84.3355L80.1625 27.4999H79.5248L77.7444 29.7383ZM75.3075 32.8106V18.5747H77.997V32.8106H75.3075ZM81.3682 32.8106L78.5146 28.1603L80.3076 26.068L84.5186 32.8106H81.3682Z" fill="#F3F3F3"/>
<path d="M85.655 32.8106V22.1337H88.2624V23.9966H88.3634C88.5401 23.3339 88.8369 22.8335 89.2536 22.4952C89.6702 22.1523 90.1501 21.9807 90.693 21.9807C90.8277 21.9807 90.973 21.99 91.1286 22.0086C91.2844 22.0272 91.4212 22.0526 91.539 22.085V24.7126C91.4127 24.6708 91.2381 24.6338 91.015 24.6014C90.7919 24.5689 90.5878 24.5527 90.4026 24.5527C90.007 24.5527 89.6534 24.6477 89.342 24.8377C89.0347 25.023 88.7906 25.2826 88.6096 25.6162C88.4329 25.9498 88.3445 26.3345 88.3445 26.77V32.8106H85.655Z" fill="#F3F3F3"/>
<path d="M96.8974 33.0192C95.9 33.0192 95.0413 32.7967 94.3216 32.3518C93.6061 31.9024 93.0547 31.2675 92.6675 30.4473C92.2803 29.6224 92.0867 28.6469 92.0867 27.5208C92.0867 26.4225 92.2803 25.4586 92.6675 24.6292C93.0547 23.7996 93.5998 23.1532 94.3026 22.6898C95.0098 22.2264 95.8389 21.9947 96.7901 21.9947C97.4298 21.9947 98.0254 22.1082 98.5767 22.3353C99.1323 22.5577 99.6163 22.8937 100.029 23.3432C100.446 23.7927 100.77 24.358 101.001 25.0393C101.233 25.7158 101.348 26.5083 101.348 27.4166V28.2298H93.1599V26.3947H98.8166C98.8166 25.9684 98.7325 25.5907 98.5641 25.2617C98.3958 24.9327 98.1621 24.6755 97.8634 24.4902C97.5688 24.3002 97.2257 24.2052 96.8342 24.2052C96.426 24.2052 96.064 24.3094 95.7484 24.5179C95.437 24.7218 95.1928 24.9976 95.0161 25.3452C94.8392 25.688 94.7488 26.0704 94.7446 26.492V28.2368C94.7446 28.765 94.8329 29.2215 95.0098 29.6062C95.1907 29.9908 95.4453 30.2874 95.7736 30.4959C96.1019 30.7044 96.4913 30.8087 96.9416 30.8087C97.2405 30.8087 97.514 30.7624 97.7623 30.6697C98.0107 30.577 98.2233 30.4379 98.4 30.2526C98.5767 30.0673 98.7114 29.8402 98.804 29.5714L101.291 29.7522C101.165 30.4102 100.906 30.9848 100.515 31.476C100.128 31.9626 99.6268 32.3426 99.0124 32.616C98.4021 32.8848 97.6971 33.0192 96.8974 33.0192Z" fill="#F3F3F3"/>
<path d="M111.171 25.1783L108.709 25.3452C108.668 25.1134 108.577 24.9048 108.438 24.7195C108.299 24.5295 108.116 24.3789 107.888 24.2677C107.666 24.1518 107.399 24.0939 107.088 24.0939C106.67 24.0939 106.318 24.1913 106.033 24.3858C105.747 24.5758 105.603 24.8307 105.603 25.1505C105.603 25.4054 105.696 25.6208 105.881 25.7969C106.067 25.973 106.384 26.1144 106.835 26.2209L108.59 26.6103C109.533 26.8234 110.235 27.1663 110.698 27.6389C111.161 28.1117 111.392 28.7326 111.392 29.5019C111.392 30.2016 111.205 30.8156 110.831 31.3439C110.461 31.8723 109.951 32.2846 109.303 32.5813C108.659 32.8732 107.917 33.0192 107.074 33.0192C105.791 33.0192 104.768 32.7249 104.006 32.1364C103.249 31.5432 102.805 30.7368 102.674 29.7174L105.319 29.5645C105.399 29.9954 105.593 30.3245 105.9 30.5515C106.208 30.7739 106.601 30.8852 107.081 30.8852C107.552 30.8852 107.931 30.7855 108.218 30.5863C108.508 30.3824 108.655 30.1205 108.659 29.8008C108.655 29.532 108.551 29.3119 108.35 29.1404C108.148 28.9644 107.836 28.8299 107.416 28.7373L105.736 28.3688C104.789 28.1603 104.084 27.7988 103.621 27.2845C103.162 26.77 102.933 26.1144 102.933 25.3173C102.933 24.6315 103.101 24.0406 103.438 23.5448C103.779 23.0489 104.257 22.6666 104.871 22.3978C105.489 22.129 106.214 21.9947 107.042 21.9947C108.267 21.9947 109.232 22.2797 109.934 22.8496C110.641 23.4196 111.054 24.1958 111.171 25.1783Z" fill="#F3F3F3"/>
<path d="M118.244 22.1337V24.358H112.404V22.1337H118.244ZM113.73 19.5757H116.419V29.5297C116.419 29.8032 116.458 30.0163 116.533 30.1692C116.609 30.3175 116.715 30.4217 116.849 30.482C116.988 30.5423 117.148 30.5724 117.329 30.5724C117.456 30.5724 117.581 30.5608 117.707 30.5376C117.833 30.5098 117.93 30.4889 117.998 30.475L118.421 32.6786C118.287 32.7249 118.097 32.7782 117.853 32.8384C117.609 32.9033 117.312 32.9427 116.963 32.9566C116.314 32.9844 115.746 32.8894 115.259 32.6716C114.774 32.4538 114.397 32.1155 114.127 31.6567C113.859 31.1979 113.726 30.6187 113.73 29.9189V19.5757Z" fill="#F3F3F3"/>
<path d="M13.657 12.0215C13.5114 5.7806 7.45387 0.758636 0.00196238 0.758636H0V2.91336H0.00196238V21.5917H0V23.7464H0.00196238C0.00196238 30.0939 6.11526 35.2392 13.657 35.2403V12.0215ZM16.094 31.3952C16.111 31.3952 16.1287 31.3963 16.1459 31.3963C21.1923 31.3963 25.2846 27.953 25.2846 23.7055C25.2846 19.4579 21.1935 16.0147 16.1459 16.0147C16.1287 16.0147 16.111 16.0158 16.094 16.0158V12.1707C16.111 12.1707 16.1287 12.1702 16.1459 12.1702C23.7165 12.1702 29.8541 17.3347 29.8541 23.7055C29.8541 30.0763 23.7165 35.2414 16.1459 35.2414C16.1287 35.2414 16.111 35.2403 16.094 35.2403V31.3952Z" fill="#E62B4A"/>
<path d="M16.094 28.8325C19.4594 28.8325 22.1869 26.5374 22.1869 23.7055C22.1869 20.8742 19.4594 18.5785 16.094 18.5785V28.8325Z" fill="#FFC4D4"/>
</svg>
